# xmcd CD database file
#
# Track frame offsets:
#	150
#	8876
#	32234
#	48753
#	64656
#	82888
#	91405
#	96153
#	108992
#	122260
#	138581
#	156819
#	176780
#	189333
#	207156
#	215689
#
# Disc length: 3088 seconds
#
# Revision: 0
# Processed by: cddbd v1.5.2PL0 Copyright (c) Steve Scherf et al.
# Submitted via: CDex 1.51
#
DISCID=d10c0e10
DTITLE=TITI WINTERSTEIN QUINTETT - THE VERY BEST OF GYPSY JAZZ
DYEAR=2008
DGENRE=Jazz
TTITLE0=Ungertikki Sintengi Gili
TTITLE1=Hunn, O Pani Naschella
TTITLE2=Sinto Nova
TTITLE3=Valse A Jesaja
TTITLE4=Metro Swing
TTITLE5=Lulu-Valse
TTITLE6=Hej Delare
TTITLE7=Noto Swing
TTITLE8=For Babs
TTITLE9=Classic Swing
TTITLE10=Milko
TTITLE11=Sintengo Bossa Nova
TTITLE12=Limehous Blues
TTITLE13=De Tout Mon Coeur
TTITLE14=Valse A Rosental
TTITLE15=Tziganotschka
EXTD=YEAR: 2008
EXTT0=
EXTT1=
EXTT2=
EXTT3=
EXTT4=
EXTT5=
EXTT6=
EXTT7=
EXTT8=
EXTT9=
EXTT10=
EXTT11=
EXTT12=
EXTT13=
EXTT14=
EXTT15=
PLAYORDER=
